<svg xmlns="http://www.w3.org/2000/svg" width="46" height="32" viewBox="0 0 46 32">
    <g fill="#00263E" fill-rule="evenodd">
        <path d="M11.5 8.966c.115.111.23.223.288.39l3.974-2.84a.947.947 0 0 1 1.267.557l.749 2.784H46v-7.24C46 1.17 44.79 0 43.293 0H11.5v8.966zM17.95 12.321c-.114.285-.402.57-.748.57l-2.707-.285 2.304 2.333v3.3l-5.126-5.235-.173.171v18.04h31.793c1.497 0 2.707-1.196 2.707-2.675V12.32H17.95zM3.718 9.857l.732-2.8a.918.918 0 0 1 1.239-.56l3.887 2.856c.056-.112.168-.28.281-.392V0h-7.21A2.637 2.637 0 0 0 0 2.632v7.225h3.718zM9.857 13.12l-.056-.057-5.182 5.08v-3.196l2.478-2.397-2.816.342a.96.96 0 0 1-.732-.57H0v16.21c0 1.484 1.183 2.682 2.647 2.682h7.21V13.121z"/>
    </g>
</svg>
